# xmcd
#
# Track frame offsets:
#	150
#	18038
#	31566
#	46665
#
# Disc length: 881 seconds
#
# Revision: 0
# Processed by: cddbd v1.5.2PL0 Copyright (c) Steve Scherf et al.
# Submitted via: AudioConverter v8.05 Copyright (c) D.R. Software
#
DISCID=18036f04
DTITLE=Texas Gray - Get Rowdy And Yell - Demo
DYEAR=2013
DGENRE=Country
TTITLE0=Texas GRAY (Get Rowdy And Yell)
TTITLE1=A Woman's Touch
TTITLE2=A Smoother Blend Of Whiskey
TTITLE3=Texas Dance Hall Nights
EXTD=
EXTT0=
EXTT1=
EXTT2=
EXTT3=
PLAYORDER=
